{
 "accessors": [
  {
   "componentType": 5126,
   "type": "VEC3",
   "count": 35008,
   "max": [
    14.22700023651123,
    36.38399887084961,
    56.805599212646484
   ],
   "min": [
    -14.22700023651123,
    -20.123300552368164,
    0.3366999924182892
   ],
   "bufferView": 1
  },
  {
   "componentType": 5126,
   "type": "VEC3",
   "count": 35008,
   "bufferView": 2
  },
  {
   "componentType": 5126,
   "type": "VEC2",
   "count": 35008,
   "bufferView": 3
  },
  {
   "componentType": 5123,
   "type": "SCALAR",
   "count": 52512,
   "bufferView": 4
  }
 ],
 "asset": {
  "version": "2.0",
  "generator": "clara.io"
 },
 "bufferViews": [
  {
   "buffer": 0,
   "byteOffset": 0,
   "byteLength": 719633
  },
  {
   "buffer": 0,
   "byteOffset": 719636,
   "byteLength": 420096,
   "target": 34962,
   "byteStride": 12
  },
  {
   "buffer": 0,
   "byteOffset": 1139732,
   "byteLength": 420096,
   "target": 34962,
   "byteStride": 12
  },
  {
   "buffer": 0,
   "byteOffset": 1559828,
   "byteLength": 280064,
   "target": 34962,
   "byteStride": 8
  },
  {
   "buffer": 0,
   "byteOffset": 1839892,
   "byteLength": 105024,
   "target": 34963
  }
 ],
 "buffers": [
  {
   "byteLength": 1944916,
   "uri": "data:application/octet-stream;base64,"
  }
 ],
 "images": [
  {
   "name": "anatrapiumaggio.jpg",
   "bufferView": 0,
   "mimeType": "image/jpeg"
  }
 ],
 "materials": [
  {
   "name": "12248_Bird_v1Mat",
   "pbrMetallicRoughness": {
    "baseColorFactor": [
     0.8,
     0.8,
     0.8,
     1
    ],
    "baseColorTexture": {
     "index": 0,
     "texCoord": 0
    },
    "roughnessFactor": 0.3015,
    "metallicFactor": 0
   }
  }
 ],
 "meshes": [
  {
   "primitives": [
    {
     "indices": 3,
     "material": 0,
     "mode": 4,
     "attributes": {
      "POSITION": 0,
      "NORMAL": 1,
      "TEXCOORD_0": 2
     }
    }
   ]
  }
 ],
 "nodes": [
  {
   "name": "anatra_root",
   "scale": [
    0.009999999776482582,
    0.009999999776482582,
    0.009999999776482582
   ],
   "children": [
    1
   ]
  },
  {
   "name": "12248_Bird_v1",
   "translation": [
    0.27379998564720154,
    11.342000007629395,
    0
   ],
   "mesh": 0
  }
 ],
 "samplers": [
  {
   "magFilter": 9729,
   "minFilter": 9987,
   "wrapS": 10497,
   "wrapT": 10497
  }
 ],
 "scene": 0,
 "scenes": [
  {
   "nodes": [
    0
   ]
  }
 ],
 "textures": [
  {
   "sampler": 0,
   "source": 0
  }
 ]
}